#!OML:ASF E:\CV Data\Top Level 1\Subject 1\Session 1\player.ASF
:FULLY-SPECIFIED
:DEGREES
543
root -2.89899 16.2314 9.06034 -182.023 -195.607 166.682
lowerback 19.7273 3.83818 2.97878
upperback 1.76793 5.79699 0.843328
thorax -8.88887 2.67823 -2.31986
lowerneck -3.88248 -14.5629 -20.2435
upperneck 1.64644 -20.306 25.8656
head 6.14067 -9.72291 9.53283
rclavicle -1.2762e-013 1.59028e-015
rhumerus 356.183 28.868 284.107
rradius 70.7192
rwrist -12.7056
rhand -25.2036 18.7537
rfingers 7.12502
rthumb 1.31495 -11.222
lclavicle -1.2762e-013 1.59028e-015
lhumerus -26.4104 -3.35883 93.4901
lradius 66.9726
lwrist 30.2587
lhand -21.7363 23.54
lfingers 7.12502
lthumb 4.66341 53.4687
rfemur -9.12764 -9.22633 27.3567
rtibia 49.8068
rfoot -30.6235 -16.9473
rtoes -18.2295
lfemur -40.9752 -4.16667 5.55845
ltibia 37.102
lfoot 0.911935 8.75494
ltoes 7.74307
544
root -2.93381 16.2516 9.01823 -182.074 -194.897 166.983
lowerback 19.4445 3.84788 2.9305
upperback 1.66913 5.79049 0.823573
thorax -8.84583 2.67774 -2.29487
lowerneck -4.43574 -14.4805 -20.1311
upperneck 2.43356 -20.1801 25.2955
head 6.35057 -9.60837 9.30845
rclavicle -5.04913e-014 -1.90833e-014
rhumerus 355.604 30.1732 283.29
rradius 71.8305
rwrist -12.9708
rhand -24.566 18.7581
rfingers 7.12502
rthumb 1.93076 -11.2129
lclavicle -5.04913e-014 -1.90833e-014
lhumerus -26.1925 -4.25524 94.0023
lradius 67.6742
lwrist 30.7808
lhand -22.0072 23.7767
lfingers 7.12502
lthumb 4.40182 53.711
rfemur -9.12153 -8.67187 27.2533
rtibia 49.6792
rfoot -30.5193 -17.172
rtoes -17.7066
lfemur -40.2927 -3.52626 5.35667
ltibia 37.0669
lfoot -0.835912 10.8409
ltoes 8.73288
545
root -2.96549 16.2747 8.97647 -182.118 -194.167 167.313
lowerback 19.1751 3.85764 2.85979
upperback 1.58672 5.77831 0.792118
thorax -8.79288 2.67556 -2.26875
lowerneck -5.03493 -14.4008 -20.0009
upperneck 3.21198 -20.0489 24.7472
head 6.5693 -9.49079 9.08839
rclavicle -7.91163e-014 1.11319e-014
rhumerus 354.979 31.5117 282.414
rradius 72.9004
rwrist -13.2034
rhand -23.9508 18.7074
rfingers 7.12502
rthumb 2.52485 -11.2574
lclavicle -7.91163e-014 1.11319e-014
lhumerus -26.0057 -5.17746 94.4686
lradius 68.3973
lwrist 31.3596
lhand -22.2912 23.9972
lfingers 7.12502
lthumb 4.12762 53.937
rfemur -9.11042 -8.03335 27.0875
rtibia 49.5552
rfoot -30.3719 -17.2819
rtoes -17.2479
lfemur -39.5885 -2.81083 5.09608
ltibia 37.0367
lfoot -2.58708 12.4589
ltoes 9.45007
546
root -2.99521 16.3007 8.93526 -182.158 -193.462 167.662
lowerback 18.9168 3.85493 2.76955
upperback 1.51888 5.7452 0.752915
thorax -8.73176 2.66433 -2.23502
lowerneck -5.6774 -14.3247 -19.8468
upperneck 3.97462 -19.9143 24.2208
head 6.79396 -9.37098 8.87163
rclavicle 1.19271e-014 1.51076e-014
rhumerus 354.312 32.8709 281.481
rradius 73.9002
rwrist -13.2973
rhand -23.3693 18.6123
rfingers 7.12502
rthumb 3.08641 -11.3451
lclavicle 1.19271e-014 1.51076e-014
lhumerus -25.8439 -6.12414 94.8861
lradius 69.1246
lwrist 31.9213
lhand -22.5533 24.218
lfingers 7.12502
lthumb 3.87452 54.1625
rfemur -9.09103 -7.36132 26.8782
rtibia 49.4228
rfoot -30.1941 -17.3044
rtoes -16.8339
lfemur -38.8819 -2.08762 4.80726
ltibia 37.0114
lfoot -4.1734 13.5427
ltoes 9.67835
547
root -3.02262 16.3295 8.89453 -182.193 -192.802 168.025
lowerback 18.663 3.83218 2.66955
upperback 1.46358 5.68341 0.707555
thorax -8.66071 2.63998 -2.1952
lowerneck -6.33746 -14.2462 -19.6717
upperneck 4.69833 -19.7702 23.7278
head 7.01336 -9.24786 8.66538
rclavicle 9.54166e-014 7.95139e-015
rhumerus 353.605 34.2392 280.493
rradius 74.8104
rwrist -13.1919
rhand -22.8153 18.483
rfingers 7.12502
rthumb 3.6215 -11.466
lclavicle 9.54166e-014 7.95139e-015
lhumerus -25.7087 -7.08602 95.2563
lradius 69.8418
lwrist 32.4105
lhand -22.7609 24.4207
lfingers 7.12502
lthumb 3.67397 54.3688
rfemur -9.06393 -6.7003 26.6301
rtibia 49.2736
rfoot -29.9897 -17.2542
rtoes -16.4466
lfemur -38.182 -1.43346 4.51824
ltibia 36.9981
lfoot -5.469 14.1192
ltoes 9.20071
548
root -3.04776 16.3607 8.85411 -182.224 -192.202 168.391
lowerback 18.4093 3.78329 2.564
upperback 1.41959 5.5864 0.662877
thorax -8.57914 2.59933 -2.14262
lowerneck -7.00612 -14.1612 -19.4862
upperneck 5.37692 -19.6131 23.2791
head 7.22561 -9.11993 8.4762
rclavicle -2.52457e-014 -1.59028e-014
rhumerus 352.866 35.6126 279.456
rradius 75.6203
rwrist -12.8734
rhand -22.2859 18.3231
rfingers 7.12502
rthumb 4.13273 -11.6165
lclavicle -2.52457e-014 -1.59028e-014
lhumerus -25.5974 -8.05572 95.5874
lradius 70.5347
lwrist 32.7836
lhand -22.9354 24.6217
lfingers 7.12502
lthumb 3.50552 54.5726
rfemur -9.03427 -6.07979 26.3597
rtibia 49.106
rfoot -29.7632 -17.1569
rtoes -16.0838
lfemur -37.4959 -0.891366 4.24988
ltibia 37.0053
lfoot -6.41887 14.2316
ltoes 7.9971
549
root -3.07012 16.3938 8.81424 -182.253 -191.659 168.756
lowerback 18.1495 3.70948 2.45376
upperback 1.38493 5.45618 0.622264
thorax -8.48588 2.54332 -2.07458
lowerneck -7.6642 -14.0677 -19.2909
upperneck 6.00246 -19.4427 22.8711
head 7.42397 -8.98809 8.30409
rclavicle -4.9895e-014 -1.98785e-014
rhumerus 352.085 36.9734 278.372
rradius 76.335
rwrist -12.3679
rhand -21.8093 18.1232
rfingers 7.12502
rthumb 4.59294 -11.807
lclavicle -4.9895e-014 -1.98785e-014
lhumerus -25.5126 -9.03775 95.8896
lradius 71.2004
lwrist 33.0264
lhand -22.9747 24.7744
lfingers 7.12502
lthumb 3.46751 54.726
rfemur -9.00473 -5.51555 26.0721
rtibia 48.9265
rfoot -29.5186 -17.0325
rtoes -15.7361
lfemur -36.8203 -0.47893 4.00627
ltibia 37.0483
lfoot -7.07121 13.9491
ltoes 6.28392
550
root -3.08911 16.4283 8.77466 -182.277 -191.161 169.117
lowerback 17.8805 3.61481 2.33985
upperback 1.35987 5.29875 0.59102
thorax -8.37893 2.47484 -1.98748
lowerneck -8.30457 -13.9636 -19.1005
upperneck 6.56852 -19.2564 22.511
head 7.60667 -8.85135 8.15448
rclavicle 1.01181e-013 6.36111e-015
rhumerus 351.263 38.3053 277.25
rradius 76.9621
rwrist -11.7289
rhand -21.3224 17.8858
rfingers 7.12502
rthumb 5.06306 -12.0337
lclavicle 1.01181e-013 6.36111e-015
lhumerus -25.4425 -10.0098 96.172
lradius 71.8177
lwrist 33.0899
lhand -22.8514 24.8657
lfingers 7.12502
lthumb 3.58661 54.8153
rfemur -8.98604 -5.01074 25.7713
rtibia 48.7465
rfoot -29.2544 -16.8938
rtoes -15.4129
lfemur -36.1538 -0.183104 3.78312
ltibia 37.1406
lfoot -7.52328 13.3358
ltoes 4.33178
551
root -3.1027 16.4632 8.7344 -182.292 -190.661 169.469
lowerback 17.6064 3.51038 2.24689
upperback 1.336 5.13369 0.566917
thorax -8.26638 2.40197 -1.90313
lowerneck -8.91794 -13.849 -18.9189
upperneck 7.08641 -19.0553 22.185
head 7.77404 -8.71096 8.0234
rclavicle -6.48038e-014 -1.19271e-014
rhumerus 350.385 39.5954 276.087
rradius 77.5162
rwrist -11.0065
rhand -20.8181 17.6082
rfingers 7.12502
rthumb 5.54998 -12.2991
lclavicle -6.48038e-014 -1.19271e-014
lhumerus -25.3943 -10.9686 96.4437
lradius 72.3882
lwrist 32.9827
lhand -22.6294 24.932
lfingers 7.12502
lthumb 3.80103 54.8779
rfemur -9.00029 -4.54738 25.4526
rtibia 48.5787
rfoot -28.9607 -16.7274
rtoes -15.1176
lfemur -35.4892 0.0116318 3.58385
ltibia 37.2966
lfoot -7.86987 12.4936
ltoes 2.39209
552
root -3.11208 16.4981 8.69312 -182.299 -190.175 169.81
lowerback 17.3385 3.39605 2.16314
upperback 1.30956 4.95924 0.55561
thorax -8.16017 2.324 -1.80962
lowerneck -9.49466 -13.7257 -18.7405
upperneck 7.55682 -18.8417 21.8747
head 7.92171 -8.56903 7.90347
rclavicle -1.12711e-013 1.43125e-014
rhumerus 349.435 40.8168 274.884
rradius 78.0093
rwrist -10.2235
rhand -20.3617 17.2854
rfingers 7.12502
rthumb 5.99066 -12.6099
lclavicle -1.12711e-013 1.43125e-014
lhumerus -25.367 -11.9192 96.7143
lradius 72.9097
lwrist 32.7261
lhand -22.3084 24.9981
lfingers 7.12502
lthumb 4.11093 54.9382
rfemur -9.04878 -4.1291 25.1283
rtibia 48.4329
rfoot -28.644 -16.556
rtoes -14.8526
lfemur -34.8374 0.148092 3.39346
ltibia 37.5238
lfoot -8.20577 11.4458
ltoes 0.698485
